<?xml version="1.0" encoding="UTF-8"?>
<svg width="1024" height="1024" viewBox="0 0 1024 1024" version="1.1"
     xmlns="http://www.w3.org/2000/svg">
  <defs>
    <linearGradient id="splashGrad" x1="0%" y1="0%" x2="100%" y2="0%">
      <stop offset="0%"   stop-color="#00C8F0"/>
      <stop offset="50%"  stop-color="#3566E5"/>
      <stop offset="100%" stop-color="#8240CE"/>
    </linearGradient>
  </defs>
  <polygon points="177,240  247,240  370,530  493,240  563,240  390,580  350,580" fill="white"/>
  <rect x="367" y="240" width="55"  height="340" fill="white"/>
  <rect x="367" y="240" width="145" height="55"  fill="white"/>
  <rect x="367" y="392" width="120" height="50"  fill="white"/>
  <rect x="367" y="525" width="145" height="55"  fill="white"/>
  <rect x="532" y="240" width="55"  height="340" fill="white"/>
  <rect x="532" y="240" width="145" height="55"  fill="white"/>
  <rect x="532" y="392" width="120" height="50"  fill="white"/>
  <polygon points="632,442  682,442  762,580  700,580" fill="white"/>
  <polygon points="784,240  826,240  934,580  874,580  805,378  736,580  676,580" fill="white"/>
  <rect x="718" y="430" width="120" height="48" fill="#080C1E"/>
  <rect x="177" y="608" width="670" height="14" rx="7" fill="url(#splashGrad)"/>
  <text x="512" y="680" font-family="sans-serif" font-size="38" font-weight="300" fill="#3566E5" text-anchor="middle" letter-spacing="8">VERTRAUENSARBEITSZEIT</text>
  <circle cx="148" cy="270" r="28" fill="#00C8F0"/>
</svg>
